<?xml version="1.0" encoding="UTF-8" standalone="no"?>
<!DOCTYPE svg PUBLIC "-//W3C//DTD SVG 1.1//EN"
 "http://www.w3.org/Graphics/SVG/1.1/DTD/svg11.dtd">
<!-- Generated by graphviz version 2.38.0 (20140413.2041)
 -->
<!-- Title: status Pages: 1 -->
<svg width="578pt" height="312pt"
 viewBox="0.00 0.00 578.00 312.00" xmlns="http://www.w3.org/2000/svg" xmlns:xlink="http://www.w3.org/1999/xlink">
<g id="graph0" class="graph" transform="scale(1 1) rotate(0) translate(4 308)">
<title>status</title>
<polygon fill="white" stroke="none" points="-4,4 -4,-308 574,-308 574,4 -4,4"/>
<g id="clust1" class="cluster"><title>cluster_legend</title>
<polygon fill="none" stroke="black" points="8,-232 8,-296 562,-296 562,-232 8,-232"/>
</g>
<!-- correct -->
<g id="node1" class="node"><title>correct</title>
<polygon fill="PaleGreen" stroke="black" points="554,-282 474,-282 474,-246 554,-246 554,-282"/>
<text text-anchor="middle" x="514" y="-261.8" font-family="arial" font-size="9.00">Full and correct</text>
</g>
<!-- incorrect -->
<g id="node2" class="node"><title>incorrect</title>
<polygon fill="LightCoral" stroke="black" points="456,-282 372,-282 372,-246 456,-246 456,-282"/>
<text text-anchor="middle" x="414" y="-261.8" font-family="arial" font-size="9.00">Full but incorrect</text>
</g>
<!-- flag -->
<g id="node3" class="node"><title>flag</title>
<polygon fill="Orchid" stroke="black" points="353.5,-282 264.5,-282 264.5,-246 353.5,-246 353.5,-282"/>
<text text-anchor="middle" x="309" y="-261.8" font-family="arial" font-size="9.00">Ready, but not full</text>
</g>
<!-- incomplete -->
<g id="node4" class="node"><title>incomplete</title>
<polygon fill="Lavender" stroke="black" points="246,-282 166,-282 166,-246 246,-246 246,-282"/>
<text text-anchor="middle" x="206" y="-261.8" font-family="arial" font-size="9.00">Not full or ready</text>
</g>
<!-- filler -->
<!-- role -->
<g id="node11" class="node"><title>role</title>
<polygon fill="Lavender" stroke="black" points="148,-204 94,-204 94,-168 148,-168 148,-204"/>
<text text-anchor="middle" x="121" y="-183.8" font-family="arial" font-size="9.00">Sending</text>
</g>
<!-- filler&#45;&gt;role -->
<!-- text -->
<g id="node6" class="node"><title>text</title>
<polygon fill="Lavender" stroke="black" points="75.5,-288 16.5,-288 16.5,-240 75.5,-240 75.5,-288"/>
<text text-anchor="middle" x="46" y="-276.8" font-family="arial" font-size="9.00">Class</text>
<text text-anchor="middle" x="46" y="-266.8" font-family="arial" font-size="9.00">Original</text>
<text text-anchor="middle" x="46" y="-256.8" font-family="arial" font-size="9.00">Converted</text>
<text text-anchor="middle" x="46" y="-246.8" font-family="arial" font-size="9.00">State</text>
</g>
<!-- 0 -->
<g id="node7" class="node"><title>0</title>
<polygon fill="PaleGreen" stroke="black" points="154,-132 88,-132 88,-84 154,-84 154,-132"/>
<text text-anchor="middle" x="121" y="-120.8" font-family="arial" font-size="9.00">FrameNode</text>
<text text-anchor="middle" x="121" y="-110.8" font-family="arial" font-size="9.00">10000000</text>
<text text-anchor="middle" x="121" y="-100.8" font-family="arial" font-size="9.00">010000000</text>
<text text-anchor="middle" x="121" y="-90.8" font-family="arial" font-size="9.00">Full</text>
</g>
<!-- 1 -->
<g id="node8" class="node"><title>1</title>
<polygon fill="PaleGreen" stroke="black" points="71.5,-48 8.5,-48 8.5,-0 71.5,-0 71.5,-48"/>
<text text-anchor="middle" x="40" y="-36.8" font-family="arial" font-size="9.00">PureNode</text>
<text text-anchor="middle" x="40" y="-26.8" font-family="arial" font-size="9.00">010</text>
<text text-anchor="middle" x="40" y="-16.8" font-family="arial" font-size="9.00">010</text>
<text text-anchor="middle" x="40" y="-6.8" font-family="arial" font-size="9.00">Full+Ready</text>
</g>
<!-- 0&#45;&gt;1 -->
<g id="edge1" class="edge"><title>0&#45;&gt;1</title>
<path fill="none" stroke="black" d="M98.0053,-83.7214C89.2955,-74.9041 79.2482,-64.7328 69.9885,-55.3587"/>
<polygon fill="black" stroke="black" points="72.2894,-52.7076 62.7718,-48.053 67.3094,-57.627 72.2894,-52.7076"/>
</g>
<!-- 2 -->
<g id="node9" class="node"><title>2</title>
<polygon fill="PaleGreen" stroke="black" points="152.5,-48 89.5,-48 89.5,-0 152.5,-0 152.5,-48"/>
<text text-anchor="middle" x="121" y="-36.8" font-family="arial" font-size="9.00">PureNode</text>
<text text-anchor="middle" x="121" y="-26.8" font-family="arial" font-size="9.00">000</text>
<text text-anchor="middle" x="121" y="-16.8" font-family="arial" font-size="9.00">000</text>
<text text-anchor="middle" x="121" y="-6.8" font-family="arial" font-size="9.00">Full+Ready</text>
</g>
<!-- 0&#45;&gt;2 -->
<g id="edge2" class="edge"><title>0&#45;&gt;2</title>
<path fill="none" stroke="black" d="M121,-83.7214C121,-75.7771 121,-66.7336 121,-58.1645"/>
<polygon fill="black" stroke="black" points="124.5,-58.0529 121,-48.053 117.5,-58.053 124.5,-58.0529"/>
</g>
<!-- 3 -->
<g id="node10" class="node"><title>3</title>
<polygon fill="PaleGreen" stroke="black" points="233.5,-48 170.5,-48 170.5,-0 233.5,-0 233.5,-48"/>
<text text-anchor="middle" x="202" y="-36.8" font-family="arial" font-size="9.00">PureNode</text>
<text text-anchor="middle" x="202" y="-26.8" font-family="arial" font-size="9.00">000</text>
<text text-anchor="middle" x="202" y="-16.8" font-family="arial" font-size="9.00">000</text>
<text text-anchor="middle" x="202" y="-6.8" font-family="arial" font-size="9.00">Full+Ready</text>
</g>
<!-- 0&#45;&gt;3 -->
<g id="edge3" class="edge"><title>0&#45;&gt;3</title>
<path fill="none" stroke="black" d="M143.995,-83.7214C152.704,-74.9041 162.752,-64.7328 172.012,-55.3587"/>
<polygon fill="black" stroke="black" points="174.691,-57.627 179.228,-48.053 169.711,-52.7076 174.691,-57.627"/>
</g>
<!-- role&#45;&gt;0 -->
<g id="edge5" class="edge"><title>role&#45;&gt;0</title>
<path fill="none" stroke="black" d="M121,-167.754C121,-160.2 121,-151.066 121,-142.276"/>
<polygon fill="black" stroke="black" points="124.5,-142.228 121,-132.228 117.5,-142.228 124.5,-142.228"/>
</g>
</g>
</svg>
