<?xml version="1.0" encoding="UTF-8" standalone="no"?>
<!DOCTYPE svg PUBLIC "-//W3C//DTD SVG 1.1//EN"
 "http://www.w3.org/Graphics/SVG/1.1/DTD/svg11.dtd">
<!-- Generated by graphviz version 2.38.0 (20140413.2041)
 -->
<!-- Title: status Pages: 1 -->
<svg width="932pt" height="396pt"
 viewBox="0.00 0.00 932.00 396.00" xmlns="http://www.w3.org/2000/svg" xmlns:xlink="http://www.w3.org/1999/xlink">
<g id="graph0" class="graph" transform="scale(1 1) rotate(0) translate(4 392)">
<title>status</title>
<polygon fill="white" stroke="none" points="-4,4 -4,-392 928,-392 928,4 -4,4"/>
<g id="clust1" class="cluster"><title>cluster_legend</title>
<polygon fill="none" stroke="black" points="349,-316 349,-380 903,-380 903,-316 349,-316"/>
</g>
<!-- correct -->
<g id="node1" class="node"><title>correct</title>
<polygon fill="PaleGreen" stroke="black" points="895,-366 815,-366 815,-330 895,-330 895,-366"/>
<text text-anchor="middle" x="855" y="-345.8" font-family="arial" font-size="9.00">Full and correct</text>
</g>
<!-- incorrect -->
<g id="node2" class="node"><title>incorrect</title>
<polygon fill="LightCoral" stroke="black" points="797,-366 713,-366 713,-330 797,-330 797,-366"/>
<text text-anchor="middle" x="755" y="-345.8" font-family="arial" font-size="9.00">Full but incorrect</text>
</g>
<!-- flag -->
<g id="node3" class="node"><title>flag</title>
<polygon fill="Orchid" stroke="black" points="694.5,-366 605.5,-366 605.5,-330 694.5,-330 694.5,-366"/>
<text text-anchor="middle" x="650" y="-345.8" font-family="arial" font-size="9.00">Ready, but not full</text>
</g>
<!-- incomplete -->
<g id="node4" class="node"><title>incomplete</title>
<polygon fill="Lavender" stroke="black" points="587,-366 507,-366 507,-330 587,-330 587,-366"/>
<text text-anchor="middle" x="547" y="-345.8" font-family="arial" font-size="9.00">Not full or ready</text>
</g>
<!-- filler -->
<!-- role -->
<g id="node10" class="node"><title>role</title>
<polygon fill="Lavender" stroke="black" points="489,-288 435,-288 435,-252 489,-252 489,-288"/>
<text text-anchor="middle" x="462" y="-267.8" font-family="arial" font-size="9.00">Sending</text>
</g>
<!-- filler&#45;&gt;role -->
<!-- text -->
<g id="node6" class="node"><title>text</title>
<polygon fill="Lavender" stroke="black" points="416.5,-372 357.5,-372 357.5,-324 416.5,-324 416.5,-372"/>
<text text-anchor="middle" x="387" y="-360.8" font-family="arial" font-size="9.00">Class</text>
<text text-anchor="middle" x="387" y="-350.8" font-family="arial" font-size="9.00">Original</text>
<text text-anchor="middle" x="387" y="-340.8" font-family="arial" font-size="9.00">Converted</text>
<text text-anchor="middle" x="387" y="-330.8" font-family="arial" font-size="9.00">State</text>
</g>
<!-- 0 -->
<g id="node7" class="node"><title>0</title>
<polygon fill="PaleGreen" stroke="black" points="924,-216 0,-216 0,-168 924,-168 924,-216"/>
<text text-anchor="middle" x="462" y="-204.8" font-family="arial" font-size="9.00">FlaggingNode</text>
<text text-anchor="middle" x="462" y="-194.8" font-family="arial" font-size="9.00">[64]0000000100000011000001010010011110011100000010000110011101011010</text>
<text text-anchor="middle" x="462" y="-184.8" font-family="arial" font-size="9.00">[169]1110111101111101111000000000000000000011000110001111011000000011001011010000000101011000010100111111110000110011111000100010001110001010101101101111000001011110100001101</text>
<text text-anchor="middle" x="462" y="-174.8" font-family="arial" font-size="9.00">Filled, ready be read</text>
</g>
<!-- 1 -->
<g id="node8" class="node"><title>1</title>
<polygon fill="PaleGreen" stroke="black" points="874,-132 50,-132 50,-84 874,-84 874,-132"/>
<text text-anchor="middle" x="462" y="-120.8" font-family="arial" font-size="9.00">ErrorDetectionNode</text>
<text text-anchor="middle" x="462" y="-110.8" font-family="arial" font-size="9.00">[64]0000000100000011000001010010011110011100000010000110011101011010</text>
<text text-anchor="middle" x="462" y="-100.8" font-family="arial" font-size="9.00">[150]111011111011110000000000000000000110001100011110110000000110010100000001010110000101001111111100011011000100010001110001010101101101111000001011110100</text>
<text text-anchor="middle" x="462" y="-90.8" font-family="arial" font-size="9.00">Correct</text>
</g>
<!-- 0&#45;&gt;1 -->
<g id="edge1" class="edge"><title>0&#45;&gt;1</title>
<path fill="none" stroke="black" d="M462,-167.721C462,-159.777 462,-150.734 462,-142.164"/>
<polygon fill="black" stroke="black" points="465.5,-142.053 462,-132.053 458.5,-142.053 465.5,-142.053"/>
</g>
<!-- 2 -->
<g id="node9" class="node"><title>2</title>
<polygon fill="PaleGreen" stroke="black" points="688,-48 236,-48 236,-0 688,-0 688,-48"/>
<text text-anchor="middle" x="462" y="-36.8" font-family="arial" font-size="9.00">SequencedNode</text>
<text text-anchor="middle" x="462" y="-26.8" font-family="arial" font-size="9.00">[64]0000000100000011000001010010011110011100000010000110011101011010</text>
<text text-anchor="middle" x="462" y="-16.8" font-family="arial" font-size="9.00">[80]11111111000000000000000100000011000001010010011110011100000010000110011101011010</text>
<text text-anchor="middle" x="462" y="-6.8" font-family="arial" font-size="9.00">Full</text>
</g>
<!-- 1&#45;&gt;2 -->
<g id="edge2" class="edge"><title>1&#45;&gt;2</title>
<path fill="none" stroke="black" d="M462,-83.7214C462,-75.7771 462,-66.7336 462,-58.1645"/>
<polygon fill="black" stroke="black" points="465.5,-58.0529 462,-48.053 458.5,-58.053 465.5,-58.0529"/>
</g>
<!-- role&#45;&gt;0 -->
<g id="edge4" class="edge"><title>role&#45;&gt;0</title>
<path fill="none" stroke="black" d="M462,-251.754C462,-244.2 462,-235.066 462,-226.276"/>
<polygon fill="black" stroke="black" points="465.5,-226.228 462,-216.228 458.5,-226.228 465.5,-226.228"/>
</g>
</g>
</svg>
