<?xml version="1.0" encoding="UTF-8" standalone="no"?>
<!DOCTYPE svg PUBLIC "-//W3C//DTD SVG 1.1//EN"
 "http://www.w3.org/Graphics/SVG/1.1/DTD/svg11.dtd">
<!-- Generated by graphviz version 2.38.0 (20140413.2041)
 -->
<!-- Title: status Pages: 1 -->
<svg width="752pt" height="396pt"
 viewBox="0.00 0.00 751.50 396.00" xmlns="http://www.w3.org/2000/svg" xmlns:xlink="http://www.w3.org/1999/xlink">
<g id="graph0" class="graph" transform="scale(1 1) rotate(0) translate(4 392)">
<title>status</title>
<polygon fill="white" stroke="none" points="-4,4 -4,-392 747.5,-392 747.5,4 -4,4"/>
<g id="clust1" class="cluster"><title>cluster_legend</title>
<polygon fill="none" stroke="black" points="181.5,-316 181.5,-380 735.5,-380 735.5,-316 181.5,-316"/>
</g>
<!-- correct -->
<g id="node1" class="node"><title>correct</title>
<polygon fill="PaleGreen" stroke="black" points="727.5,-366 647.5,-366 647.5,-330 727.5,-330 727.5,-366"/>
<text text-anchor="middle" x="687.5" y="-345.8" font-family="arial" font-size="9.00">Full and correct</text>
</g>
<!-- incorrect -->
<g id="node2" class="node"><title>incorrect</title>
<polygon fill="LightCoral" stroke="black" points="629.5,-366 545.5,-366 545.5,-330 629.5,-330 629.5,-366"/>
<text text-anchor="middle" x="587.5" y="-345.8" font-family="arial" font-size="9.00">Full but incorrect</text>
</g>
<!-- flag -->
<g id="node3" class="node"><title>flag</title>
<polygon fill="Orchid" stroke="black" points="527,-366 438,-366 438,-330 527,-330 527,-366"/>
<text text-anchor="middle" x="482.5" y="-345.8" font-family="arial" font-size="9.00">Ready, but not full</text>
</g>
<!-- incomplete -->
<g id="node4" class="node"><title>incomplete</title>
<polygon fill="Lavender" stroke="black" points="419.5,-366 339.5,-366 339.5,-330 419.5,-330 419.5,-366"/>
<text text-anchor="middle" x="379.5" y="-345.8" font-family="arial" font-size="9.00">Not full or ready</text>
</g>
<!-- filler -->
<!-- role -->
<g id="node10" class="node"><title>role</title>
<polygon fill="Lavender" stroke="black" points="321.5,-288 267.5,-288 267.5,-252 321.5,-252 321.5,-288"/>
<text text-anchor="middle" x="294.5" y="-267.8" font-family="arial" font-size="9.00">Sending</text>
</g>
<!-- filler&#45;&gt;role -->
<!-- text -->
<g id="node6" class="node"><title>text</title>
<polygon fill="Lavender" stroke="black" points="249,-372 190,-372 190,-324 249,-324 249,-372"/>
<text text-anchor="middle" x="219.5" y="-360.8" font-family="arial" font-size="9.00">Class</text>
<text text-anchor="middle" x="219.5" y="-350.8" font-family="arial" font-size="9.00">Original</text>
<text text-anchor="middle" x="219.5" y="-340.8" font-family="arial" font-size="9.00">Converted</text>
<text text-anchor="middle" x="219.5" y="-330.8" font-family="arial" font-size="9.00">State</text>
</g>
<!-- 0 -->
<g id="node7" class="node"><title>0</title>
<polygon fill="PaleGreen" stroke="black" points="589,-216 0,-216 0,-168 589,-168 589,-216"/>
<text text-anchor="middle" x="294.5" y="-204.8" font-family="arial" font-size="9.00">FlaggingNode</text>
<text text-anchor="middle" x="294.5" y="-194.8" font-family="arial" font-size="9.00">1111100111001011111101001011011101010010011001001001101011111011</text>
<text text-anchor="middle" x="294.5" y="-184.8" font-family="arial" font-size="9.00">1001100111111111001001110000101111111101001011000111010101001001101101001001111010111110101100001100111001101</text>
<text text-anchor="middle" x="294.5" y="-174.8" font-family="arial" font-size="9.00">Filled, ready to send</text>
</g>
<!-- 1 -->
<g id="node8" class="node"><title>1</title>
<polygon fill="PaleGreen" stroke="black" points="539,-132 50,-132 50,-84 539,-84 539,-132"/>
<text text-anchor="middle" x="294.5" y="-120.8" font-family="arial" font-size="9.00">ErrorDetectionNode</text>
<text text-anchor="middle" x="294.5" y="-110.8" font-family="arial" font-size="9.00">1111100111001011111101001011011101010010011001001001101011111011</text>
<text text-anchor="middle" x="294.5" y="-100.8" font-family="arial" font-size="9.00">111111110010011100001011111111010010110001110101010010011011010010011110101111101011000011</text>
<text text-anchor="middle" x="294.5" y="-90.8" font-family="arial" font-size="9.00">Correct</text>
</g>
<!-- 0&#45;&gt;1 -->
<g id="edge1" class="edge"><title>0&#45;&gt;1</title>
<path fill="none" stroke="black" d="M294.5,-167.721C294.5,-159.777 294.5,-150.734 294.5,-142.164"/>
<polygon fill="black" stroke="black" points="298,-142.053 294.5,-132.053 291,-142.053 298,-142.053"/>
</g>
<!-- 2 -->
<g id="node9" class="node"><title>2</title>
<polygon fill="PaleGreen" stroke="black" points="492,-48 97,-48 97,-0 492,-0 492,-48"/>
<text text-anchor="middle" x="294.5" y="-36.8" font-family="arial" font-size="9.00">SequencedNode</text>
<text text-anchor="middle" x="294.5" y="-26.8" font-family="arial" font-size="9.00">1111100111001011111101001011011101010010011001001001101011111011</text>
<text text-anchor="middle" x="294.5" y="-16.8" font-family="arial" font-size="9.00">111111111001110010111111010010110111010100100110010010011010111110110000</text>
<text text-anchor="middle" x="294.5" y="-6.8" font-family="arial" font-size="9.00">Full</text>
</g>
<!-- 1&#45;&gt;2 -->
<g id="edge2" class="edge"><title>1&#45;&gt;2</title>
<path fill="none" stroke="black" d="M294.5,-83.7214C294.5,-75.7771 294.5,-66.7336 294.5,-58.1645"/>
<polygon fill="black" stroke="black" points="298,-58.0529 294.5,-48.053 291,-58.053 298,-58.0529"/>
</g>
<!-- role&#45;&gt;0 -->
<g id="edge4" class="edge"><title>role&#45;&gt;0</title>
<path fill="none" stroke="black" d="M294.5,-251.754C294.5,-244.2 294.5,-235.066 294.5,-226.276"/>
<polygon fill="black" stroke="black" points="298,-226.228 294.5,-216.228 291,-226.228 298,-226.228"/>
</g>
</g>
</svg>
