<?xml version="1.0" encoding="UTF-8" standalone="no"?>
<!DOCTYPE svg PUBLIC "-//W3C//DTD SVG 1.1//EN"
 "http://www.w3.org/Graphics/SVG/1.1/DTD/svg11.dtd">
<!-- Generated by graphviz version 2.26.3 (20100126.1600)
 -->
<!-- Title: status Pages: 1 -->
<svg width="574pt" height="236pt"
 viewBox="0.00 0.00 574.00 236.00" xmlns="http://www.w3.org/2000/svg" xmlns:xlink="http://www.w3.org/1999/xlink">
<g id="graph1" class="graph" transform="scale(1 1) rotate(0) translate(4 232)">
<title>status</title>
<polygon fill="white" stroke="white" points="-4,5 -4,-232 571,-232 571,5 -4,5"/>
<g id="graph2" class="cluster"><title>cluster_legend</title>
<polygon fill="none" stroke="black" points="8,-152 8,-220 558,-220 558,-152 8,-152"/>
</g>
<!-- correct -->
<g id="node2" class="node"><title>correct</title>
<polygon fill="PaleGreen" stroke="black" points="550,-204 470,-204 470,-168 550,-168 550,-204"/>
<text text-anchor="middle" x="510" y="-183.4" font-family="arial" font-size="9.00">Full and correct</text>
</g>
<!-- incorrect -->
<g id="node3" class="node"><title>incorrect</title>
<polygon fill="LightCoral" stroke="black" points="452,-204 368,-204 368,-168 452,-168 452,-204"/>
<text text-anchor="middle" x="410" y="-183.4" font-family="arial" font-size="9.00">Full but incorrect</text>
</g>
<!-- flag -->
<g id="node4" class="node"><title>flag</title>
<polygon fill="Orchid" stroke="black" points="350,-204 262,-204 262,-168 350,-168 350,-204"/>
<text text-anchor="middle" x="306" y="-183.4" font-family="arial" font-size="9.00">Ready, but not full</text>
</g>
<!-- incomplete -->
<g id="node5" class="node"><title>incomplete</title>
<polygon fill="Lavender" stroke="black" points="244,-204 164,-204 164,-168 244,-168 244,-204"/>
<text text-anchor="middle" x="204" y="-183.4" font-family="arial" font-size="9.00">Not full or ready</text>
</g>
<!-- filler -->
<!-- role -->
<g id="node10" class="node"><title>role</title>
<polygon fill="Lavender" stroke="black" points="146,-124 92,-124 92,-88 146,-88 146,-124"/>
<text text-anchor="middle" x="119" y="-103.4" font-family="arial" font-size="9.00">Sending</text>
</g>
<!-- filler&#45;&gt;role -->
<!-- text -->
<g id="node7" class="node"><title>text</title>
<polygon fill="Lavender" stroke="black" points="74,-212 16,-212 16,-160 74,-160 74,-212"/>
<text text-anchor="middle" x="45" y="-199.9" font-family="arial" font-size="9.00">Class</text>
<text text-anchor="middle" x="45" y="-188.9" font-family="arial" font-size="9.00">Original</text>
<text text-anchor="middle" x="45" y="-177.9" font-family="arial" font-size="9.00">Converted</text>
<text text-anchor="middle" x="45" y="-166.9" font-family="arial" font-size="9.00">State</text>
</g>
<!-- 0 -->
<g id="node9" class="node"><title>0</title>
<polygon fill="PaleGreen" stroke="black" points="150,-52 88,-52 88,-2.4869e-14 150,-7.10543e-15 150,-52"/>
<text text-anchor="middle" x="119" y="-39.9" font-family="arial" font-size="9.00">PureNode</text>
<text text-anchor="middle" x="119" y="-28.9" font-family="arial" font-size="9.00">00000010</text>
<text text-anchor="middle" x="119" y="-17.9" font-family="arial" font-size="9.00">00000010</text>
<text text-anchor="middle" x="119" y="-6.9" font-family="arial" font-size="9.00">Full+Ready</text>
</g>
<!-- role&#45;&gt;0 -->
<g id="edge6" class="edge"><title>role&#45;&gt;0</title>
<path fill="none" stroke="black" d="M119,-87.8468C119,-80.2921 119,-71.2376 119,-62.4174"/>
<polygon fill="black" stroke="black" points="122.5,-62.2746 119,-52.2746 115.5,-62.2747 122.5,-62.2746"/>
</g>
</g>
</svg>
