<?xml version="1.0" encoding="UTF-8" standalone="no"?>
<!DOCTYPE svg PUBLIC "-//W3C//DTD SVG 1.1//EN"
 "http://www.w3.org/Graphics/SVG/1.1/DTD/svg11.dtd">
<!-- Generated by graphviz version 2.26.3 (20100126.1600)
 -->
<!-- Title: status Pages: 1 -->
<svg width="574pt" height="324pt"
 viewBox="0.00 0.00 574.00 324.00" xmlns="http://www.w3.org/2000/svg" xmlns:xlink="http://www.w3.org/1999/xlink">
<g id="graph1" class="graph" transform="scale(1 1) rotate(0) translate(4 320)">
<title>status</title>
<polygon fill="white" stroke="white" points="-4,5 -4,-320 571,-320 571,5 -4,5"/>
<g id="graph2" class="cluster"><title>cluster_legend</title>
<polygon fill="none" stroke="black" points="8,-240 8,-308 558,-308 558,-240 8,-240"/>
</g>
<!-- correct -->
<g id="node2" class="node"><title>correct</title>
<polygon fill="PaleGreen" stroke="black" points="550,-292 470,-292 470,-256 550,-256 550,-292"/>
<text text-anchor="middle" x="510" y="-271.4" font-family="arial" font-size="9.00">Full and correct</text>
</g>
<!-- incorrect -->
<g id="node3" class="node"><title>incorrect</title>
<polygon fill="LightCoral" stroke="black" points="452,-292 368,-292 368,-256 452,-256 452,-292"/>
<text text-anchor="middle" x="410" y="-271.4" font-family="arial" font-size="9.00">Full but incorrect</text>
</g>
<!-- flag -->
<g id="node4" class="node"><title>flag</title>
<polygon fill="Orchid" stroke="black" points="350,-292 262,-292 262,-256 350,-256 350,-292"/>
<text text-anchor="middle" x="306" y="-271.4" font-family="arial" font-size="9.00">Ready, but not full</text>
</g>
<!-- incomplete -->
<g id="node5" class="node"><title>incomplete</title>
<polygon fill="Lavender" stroke="black" points="244,-292 164,-292 164,-256 244,-256 244,-292"/>
<text text-anchor="middle" x="204" y="-271.4" font-family="arial" font-size="9.00">Not full or ready</text>
</g>
<!-- filler -->
<!-- role -->
<g id="node16" class="node"><title>role</title>
<polygon fill="Lavender" stroke="black" points="146,-212 92,-212 92,-176 146,-176 146,-212"/>
<text text-anchor="middle" x="119" y="-191.4" font-family="arial" font-size="9.00">Sending</text>
</g>
<!-- filler&#45;&gt;role -->
<!-- text -->
<g id="node7" class="node"><title>text</title>
<polygon fill="Lavender" stroke="black" points="74,-300 16,-300 16,-248 74,-248 74,-300"/>
<text text-anchor="middle" x="45" y="-287.9" font-family="arial" font-size="9.00">Class</text>
<text text-anchor="middle" x="45" y="-276.9" font-family="arial" font-size="9.00">Original</text>
<text text-anchor="middle" x="45" y="-265.9" font-family="arial" font-size="9.00">Converted</text>
<text text-anchor="middle" x="45" y="-254.9" font-family="arial" font-size="9.00">State</text>
</g>
<!-- 0 -->
<g id="node9" class="node"><title>0</title>
<polygon fill="PaleGreen" stroke="black" points="152,-140 86,-140 86,-88 152,-88 152,-140"/>
<text text-anchor="middle" x="119" y="-127.9" font-family="arial" font-size="9.00">FrameNode</text>
<text text-anchor="middle" x="119" y="-116.9" font-family="arial" font-size="9.00">01100001</text>
<text text-anchor="middle" x="119" y="-105.9" font-family="arial" font-size="9.00">001100001</text>
<text text-anchor="middle" x="119" y="-94.9" font-family="arial" font-size="9.00">Full</text>
</g>
<!-- 1 -->
<g id="node11" class="node"><title>1</title>
<polygon fill="PaleGreen" stroke="black" points="70,-52 8,-52 8,-2.4869e-14 70,-7.10543e-15 70,-52"/>
<text text-anchor="middle" x="39" y="-39.9" font-family="arial" font-size="9.00">PureNode</text>
<text text-anchor="middle" x="39" y="-28.9" font-family="arial" font-size="9.00">001</text>
<text text-anchor="middle" x="39" y="-17.9" font-family="arial" font-size="9.00">001</text>
<text text-anchor="middle" x="39" y="-6.9" font-family="arial" font-size="9.00">Full+Ready</text>
</g>
<!-- 0&#45;&gt;1 -->
<g id="edge4" class="edge"><title>0&#45;&gt;1</title>
<path fill="none" stroke="black" d="M94.9974,-87.5971C87.015,-78.8165 78.015,-68.9165 69.6028,-59.6631"/>
<polygon fill="black" stroke="black" points="72.0266,-57.1261 62.71,-52.081 66.847,-61.8348 72.0266,-57.1261"/>
</g>
<!-- 2 -->
<g id="node13" class="node"><title>2</title>
<polygon fill="PaleGreen" stroke="black" points="150,-52 88,-52 88,-2.4869e-14 150,-7.10543e-15 150,-52"/>
<text text-anchor="middle" x="119" y="-39.9" font-family="arial" font-size="9.00">PureNode</text>
<text text-anchor="middle" x="119" y="-28.9" font-family="arial" font-size="9.00">100</text>
<text text-anchor="middle" x="119" y="-17.9" font-family="arial" font-size="9.00">100</text>
<text text-anchor="middle" x="119" y="-6.9" font-family="arial" font-size="9.00">Full+Ready</text>
</g>
<!-- 0&#45;&gt;2 -->
<g id="edge6" class="edge"><title>0&#45;&gt;2</title>
<path fill="none" stroke="black" d="M119,-87.5971C119,-79.6068 119,-70.6894 119,-62.1759"/>
<polygon fill="black" stroke="black" points="122.5,-62.081 119,-52.081 115.5,-62.081 122.5,-62.081"/>
</g>
<!-- 3 -->
<g id="node15" class="node"><title>3</title>
<polygon fill="PaleGreen" stroke="black" points="230,-52 168,-52 168,-2.4869e-14 230,-7.10543e-15 230,-52"/>
<text text-anchor="middle" x="199" y="-39.9" font-family="arial" font-size="9.00">PureNode</text>
<text text-anchor="middle" x="199" y="-28.9" font-family="arial" font-size="9.00">001</text>
<text text-anchor="middle" x="199" y="-17.9" font-family="arial" font-size="9.00">001</text>
<text text-anchor="middle" x="199" y="-6.9" font-family="arial" font-size="9.00">Full+Ready</text>
</g>
<!-- 0&#45;&gt;3 -->
<g id="edge8" class="edge"><title>0&#45;&gt;3</title>
<path fill="none" stroke="black" d="M143.003,-87.5971C150.985,-78.8165 159.985,-68.9165 168.397,-59.6631"/>
<polygon fill="black" stroke="black" points="171.153,-61.8348 175.29,-52.081 165.973,-57.1261 171.153,-61.8348"/>
</g>
<!-- role&#45;&gt;0 -->
<g id="edge12" class="edge"><title>role&#45;&gt;0</title>
<path fill="none" stroke="black" d="M119,-175.847C119,-168.292 119,-159.238 119,-150.417"/>
<polygon fill="black" stroke="black" points="122.5,-150.275 119,-140.275 115.5,-150.275 122.5,-150.275"/>
</g>
</g>
</svg>
