<?xml version="1.0" encoding="UTF-8" standalone="no"?>
<!-- Created with Inkscape (http://www.inkscape.org/) -->

<svg
   xmlns:dc="http://purl.org/dc/elements/1.1/"
   xmlns:cc="http://creativecommons.org/ns#"
   xmlns:rdf="http://www.w3.org/1999/02/22-rdf-syntax-ns#"
   xmlns:svg="http://www.w3.org/2000/svg"
   xmlns="http://www.w3.org/2000/svg"
   xmlns:sodipodi="http://sodipodi.sourceforge.net/DTD/sodipodi-0.dtd"
   xmlns:inkscape="http://www.inkscape.org/namespaces/inkscape"
   id="svg3039"
   version="1.1"
   inkscape:version="0.48.4 r9939"
   width="518"
   height="518"
   sodipodi:docname="foo.png">
  <metadata
     id="metadata3045">
    <rdf:RDF>
      <cc:Work
         rdf:about="">
        <dc:format>image/svg+xml</dc:format>
        <dc:type
           rdf:resource="http://purl.org/dc/dcmitype/StillImage" />
        <dc:title></dc:title>
      </cc:Work>
    </rdf:RDF>
  </metadata>
  <defs
     id="defs3043" />
  <sodipodi:namedview
     pagecolor="#ffffff"
     bordercolor="#666666"
     borderopacity="1"
     objecttolerance="10"
     gridtolerance="10"
     guidetolerance="10"
     inkscape:pageopacity="0"
     inkscape:pageshadow="2"
     inkscape:window-width="1598"
     inkscape:window-height="879"
     id="namedview3041"
     showgrid="false"
     inkscape:zoom="1.3725869"
     inkscape:cx="259"
     inkscape:cy="195.40669"
     inkscape:window-x="0"
     inkscape:window-y="19"
     inkscape:window-maximized="0"
     inkscape:current-layer="g3062" />
  <g
     id="g3062">
    <path
       style="fill:#555753;stroke:#2e3436"
       d="m 243.5,483.37918 c -36.73546,-5.56007 -60.21906,-17.05408 -84.50779,-41.3622 -26.78656,-26.80795 -45.51378,-63.39657 -55.92022,-109.25506 -4.284287,-18.87975 -7.946927,-44.12053 -8.028078,-55.32483 -0.03904,-5.39054 -0.373642,-6.37881 -3.017181,-8.91148 -4.538884,-4.34853 -6.493443,-11.31563 -6.459633,-23.02561 0.03645,-12.62526 1.545966,-17.95754 6.38921,-22.56955 3.54508,-3.37582 3.867682,-4.21702 5.944303,-15.5 9.260829,-50.31718 29.049859,-90.24578 60.024629,-121.112478 20.26008,-20.189393 41.34211,-32.901701 66.20012,-39.918189 6.50603,-1.836409 10.29377,-3.513396 12.37837,-5.480414 5.04137,-4.757021 10.6359,-6.286367 22.99627,-6.286367 12.36037,0 17.9549,1.529346 22.99627,6.286367 2.09546,1.977267 5.87634,3.643236 12.50373,5.509514 24.23038,6.823297 46.2218,20.032063 65.90552,39.585018 31.34292,31.134679 51.98764,73.327009 60.65764,123.968129 1.40137,8.18534 2.08189,9.98956 4.9763,13.19333 4.52886,5.0129 5.89555,10.36825 5.82487,22.82464 -0.0643,11.33453 -1.67067,17.56828 -5.60673,21.75802 -1.89267,2.01465 -2.3326,4.26168 -3.3912,17.32119 -3.52854,43.52988 -15.66688,86.02697 -33.61659,117.69384 -8.76818,15.46881 -17.61153,27.15529 -29.71627,39.27002 -21.19102,21.20852 -43.3453,33.24011 -71.99803,39.10082 -9.25922,1.89391 -37.44441,3.30856 -44.53551,2.23529 z M 129.48286,331.37428 c 4.12282,-4.12282 -1.44958,-11.07736 -6.88976,-8.59865 -2.03318,0.92637 -2.5931,1.89868 -2.5931,4.50293 0,1.82679 0.54,3.86144 1.2,4.52144 1.71924,1.71924 6.37732,1.47983 8.28286,-0.42572 z m 273.12864,-1.2087 c 1.54418,-3.11533 0.63971,-6.094 -2.25027,-7.41076 -5.37749,-2.45015 -10.66226,4.04509 -6.78085,8.334 2.47847,2.73868 7.46888,2.22852 9.03112,-0.92324 z m -139.56868,-11.1885 c 2.92568,-1.56577 4.22488,-4.60837 2.96945,-6.95416 -3.50247,-6.54442 -12.72413,-2.99186 -10.49172,4.04184 0.36043,1.13561 1.62826,2.45709 2.81739,2.93661 2.83349,1.14262 2.52149,1.14423 4.70488,-0.0243 z M 150.83369,307.40394 c 5.62573,-3.94042 -0.63769,-12.72806 -6.38697,-8.96099 -4.25176,2.78587 -2.48347,10.55705 2.4022,10.55705 0.93834,0 2.73148,-0.71823 3.98477,-1.59606 z m 227.60121,0.62081 C 380.60552,307.19948 381,306.42674 381,303 c 0,-3.39934 -0.40139,-4.20211 -2.5,-5 -6.37881,-2.42522 -11.22085,4.27915 -6.5,9 2.27948,2.27948 2.88224,2.37547 6.4349,1.02475 z M 125.6188,289.45904 c 2.11508,-3.22803 0.62729,-7.10819 -3.08256,-8.0393 -3.39158,-0.85123 -5.32323,0.0186 -6.68674,3.01123 C 114.22392,287.99872 116.94667,292 121,292 c 2.06004,0 3.4577,-0.7689 4.6188,-2.54096 z m 280.80977,0.96953 c 4.73088,-4.73088 -1.43486,-11.63631 -7.49431,-8.39339 -2.21722,1.18662 -2.68837,6.81071 -0.73426,8.76482 1.69902,1.69902 6.36891,1.48823 8.22857,-0.37143 z m -201.66384,-23.6135 c 7.60451,-2.84521 13.21475,-7.51885 16.44253,-13.69754 2.39229,-4.57937 2.79194,-6.5125 2.78716,-13.48172 -0.007,-10.55238 -1.41131,-15.34971 -5.66734,-19.36366 -4.86065,-4.58419 -12.58737,-6.65806 -24.82708,-6.66364 -11.98743,-0.005 -18.75734,2.22516 -25.9389,8.54662 -6.48036,5.70424 -8.7442,10.5663 -8.79632,18.89185 -0.0516,8.2416 2.50141,14.1539 8.42125,19.50212 9.93681,8.97731 24.04468,11.32969 37.5787,6.26597 z m 136.76884,0.0865 c 6.39863,-2.39404 13.78591,-8.69711 16.72854,-14.27335 3.02574,-5.73373 3.04633,-16.48479 0.0425,-22.17316 -3.07861,-5.82992 -10.06213,-11.82995 -16.88578,-14.50774 -12.10518,-4.75041 -33.61803,-2.3976 -40.90354,4.47352 -4.08513,3.85277 -5.50252,8.77477 -5.50969,19.13283 -0.009,12.41633 4.56145,20.12383 15.12862,25.51481 10.17096,5.18883 20.77565,5.80793 31.39937,1.83309 z M 144.17126,178.34501 c 4.03402,-3.65073 1.0454,-9.69486 -4.52389,-9.14901 -3.85549,0.37787 -6.10747,4.05621 -4.43295,7.24067 2.06963,3.93585 5.83095,4.73723 8.95684,1.90834 z M 387,178 c 2.4173,-2.4173 2.50135,-3.83921 0.40394,-6.83369 -2.22869,-3.18189 -7.28891,-2.65569 -9.31326,0.96846 -1.31803,2.35965 -1.29278,2.90785 0.24186,5.25 2.08219,3.17783 5.83825,3.44444 8.66746,0.61523 z M 145.22437,145.4069 c 0.94946,-2.08384 0.88996,-3.11489 -0.30298,-5.25 -2.08468,-3.73114 -6.09103,-4.028 -8.74949,-0.6483 -3.23752,4.11584 -0.93314,8.4914 4.47198,8.4914 2.68772,0 3.64624,-0.54264 4.58049,-2.5931 z m 242.33551,0.14206 c 2.91312,-4.44599 -0.89444,-9.43476 -6.18703,-8.1064 -3.26681,0.81991 -4.80179,4.29905 -3.45712,7.83578 1.42878,3.75799 7.25207,3.92139 9.64415,0.27062 z m -196.49414,0.41586 C 192.40087,145.25028 193,143.86732 193,141.5 c 0,-2.36732 -0.59913,-3.75028 -1.93426,-4.46482 C 186.62926,134.66085 182,136.94073 182,141.5 c 0,4.55927 4.62926,6.83915 9.06574,4.46482 z m 49.60172,-1.58005 c 1.53728,-2.34619 1.56143,-2.88628 0.23471,-5.25 C 239.75419,137.08951 238.65737,136.5 236,136.5 c -2.65737,0 -3.75419,0.58951 -4.90217,2.63477 -1.32672,2.36372 -1.30257,2.90381 0.23471,5.25 C 232.54034,146.22811 233.91796,147 236,147 c 2.08204,0 3.45966,-0.77189 4.66746,-2.61523 z m 48.3351,1.11215 c 0.68609,-0.82669 1.24744,-2.62531 1.24744,-3.99692 0,-1.37161 -0.56135,-3.17023 -1.24744,-3.99692 C 286.22297,134.15389 279,136.91465 279,141.32625 c 0,4.71289 7.09675,7.67196 10.00256,4.17067 z m 48.42601,-0.0683 C 340.9928,141.86434 338.27007,136 333.05102,136 c -3.37651,0 -5.30102,2.06032 -5.30102,5.67509 0,4.6933 6.29677,7.13528 9.67857,3.75348 z m -144.76111,-30.0438 c 1.53546,-2.34341 1.56037,-2.88909 0.23963,-5.25 -2.56149,-4.57888 -9.23301,-3.66869 -10.5138,1.43439 -1.45402,5.79326 6.93661,8.90936 10.27417,3.81561 z m 143.94776,1.84992 c 2.14529,-1.41328 2.60997,-5.24207 0.94466,-7.78365 C 335.58489,106.43682 331.76448,106.23552 329,109 c -2.40692,2.40692 -2.50067,3.84018 -0.4433,6.77749 1.55194,2.2157 5.75379,2.97551 8.05852,1.4572 z M 192,85 c 2.40692,-2.406924 2.50067,-3.840182 0.4433,-6.777494 C 189.64467,74.226908 182,76.373534 182,81.154988 182,83.599032 185.49115,87 188,87 c 1.1,0 2.9,-0.9 4,-2 z m 145.08666,-0.08666 c 2.20407,-2.204076 1.97864,-6.614796 -0.41594,-8.138012 -2.39096,-1.520914 -6.55532,-0.77818 -8.11402,1.447176 -2.05737,2.937312 -1.96362,4.37057 0.4433,6.777494 2.57224,2.572238 5.45869,2.541306 8.08666,-0.08666 z"
       id="path3076"
       inkscape:connector-curvature="0"
       sodipodi:nodetypes="ssssssssssssssssssssssssssssssssscsssccsssssssssssssssssssscscsssscsssscsccssssssssssssssssssssssssssssssssssscssccsssscsssccssssssssss" />
    <path
       style="fill:#dee0c9"
       d="M 96.369316,281 C 95.709514,269.82116 95.596729,269.38977 92.3308,265.55309 87.851827,260.29136 86.595971,255.46201 86.595971,243.5 c 0,-12.66782 1.505492,-17.9709 6.38754,-22.5 2.8715,-2.66391 3.939754,-4.57498 4.471861,-8 0.384513,-2.475 1.80648,-9.99227 3.159928,-16.70504 C 115.633,121.8108 165.43094,61.244507 225,45.013193 c 5.67994,-1.547665 9.49531,-3.236327 11.5,-5.089837 5.29866,-4.899083 10.7566,-6.423356 23,-6.423356 12.51935,0 17.01624,1.195134 22.38071,5.948107 2.55209,2.261177 6.12564,3.899244 12.11929,5.55532 63.67143,17.592731 115.5687,85.154073 127.04794,165.394613 0.81547,5.70025 1.58001,7.55462 4.4029,10.67922 1.87884,2.07965 3.89727,5.50053 4.4854,7.60196 3.43307,12.26649 1.99527,28.35433 -3.17152,35.48687 -2.92474,4.03749 -3.12842,4.97012 -4.42984,20.283 C 407.37258,551.05886 112.52315,521.13742 96.369316,281 z m 324.285604,-6.96553 c 0.42674,-6.14831 0.9307,-7.84786 2.85624,-9.6324 1.28595,-1.19177 2.85763,-4.13228 3.49264,-6.53446 0.635,-2.40219 1.61942,-5.98988 2.18759,-7.97266 1.08792,-3.79652 0.75431,-8.80716 -1.18995,-17.87266 -1.50723,-7.02772 -2.40669,-8.6281 -5.74974,-10.23038 -2.61302,-1.25239 -2.80833,-1.87624 -4.47719,-14.30071 -0.95973,-7.14516 -2.16763,-14.1162 -2.68423,-15.4912 -0.51659,-1.375 -1.48814,-4.975 -2.15899,-8 -2.37635,-10.71536 -10.12471,-31.67743 -16.57428,-44.83931 C 384.88304,115.7453 367.48087,92.267051 351.72782,78.948927 332.4101,62.617115 309.45179,50.77554 288.01855,46.08858 c -3.00164,-0.656391 -5.31309,-1.975887 -7,-3.995965 C 278.45881,39.027317 274.44124,37 270.92643,37 c -1.68938,0 -1.78105,0.259927 -0.7014,1.98872 1.05407,1.687844 0.91781,2.312886 -0.90069,4.131384 -1.81609,1.816092 -3.33772,2.149499 -9.9835,2.187513 -9.79926,0.05605 -12.79348,-1.294412 -11.9724,-5.399829 C 247.6883,38.308505 247.54054,37 247.0401,37 c -2.51724,0 -6.85403,2.497767 -9.66482,5.566441 C 235.64552,44.454898 233.35775,46 232.29135,46 c -1.06639,0 -5.52663,1.073855 -9.91163,2.386345 C 169.40537,64.242277 128.67418,109.85689 107.98171,176.5 c -2.82067,9.08439 -4.81648,18.4913 -6.68315,31.5 -1.736599,12.1022 -2.216183,13.38313 -5.175321,13.82278 -7.690821,1.14266 -10.088942,27.67393 -3.630321,40.16352 0.857143,1.65754 2.206054,3.0137 2.997578,3.0137 2.4615,0 3.213993,3.07767 3.912011,16 C 121.6715,559.39684 401.6032,508.69226 420.65492,274.03447 z m -256.54706,74.78841 c -6.2415,-6.11178 -6.27452,-7.46026 -0.42086,-17.18922 6.77592,-11.26177 45.75003,-47.65465 49.64444,-46.35651 2.51785,0.83928 1.3466,3.08985 -5.38798,10.35312 -19.41986,20.94434 -31.10858,38.22755 -34.4002,50.86494 -1.55654,5.97598 -2.25015,7.50479 -3.40484,7.50479 -0.40895,0 -3.1227,-2.32971 -6.03056,-5.17712 z m 183.1511,3.92712 c -0.54225,-0.6875 -1.28278,-3.19443 -1.64561,-5.57096 -1.47228,-9.64352 -12.27525,-26.42506 -29.16865,-45.31117 -12.65346,-14.14604 -13.03727,-14.6753 -11.64915,-16.06342 1.41038,-1.41038 3.73044,0.0766 16.70445,10.70618 19.30341,15.81528 38.5,38.27265 38.5,45.03971 C 360,343.44148 350.60167,354 348.91833,354 c -0.37039,0 -1.11711,-0.5625 -1.65937,-1.25 z M 247.09135,332.40931 C 236.50394,327.11265 221.75441,312 227.17242,312 c 0.64483,0 3.68233,2.18283 6.75,4.85073 3.06767,2.66791 8.25871,6.3637 11.53564,8.21288 5.32749,3.00632 6.94504,3.40532 15.28358,3.77002 8.79441,0.38464 9.67955,0.23354 15.54194,-2.65302 3.68445,-1.81417 8.39712,-5.32543 11.57041,-8.62074 5.01245,-5.20521 8.14601,-6.94016 8.14601,-4.51021 0,4.39162 -11.38206,15.79279 -20.24103,20.27502 C 271.32153,335.56982 269.16864,336 262.37,336 c -7.29833,0 -8.81267,-0.35589 -15.27865,-3.59069 z M 119.10359,331.4652 c -3.82908,-4.36107 -3.92758,-7.54072 -0.35359,-11.41373 4.19375,-4.54463 7.2933,-4.83036 11.57908,-1.0674 4.45135,3.90834 5.18755,6.11621 3.27356,9.81745 -3.53462,6.8352 -9.8222,7.99031 -14.49905,2.66368 z m 11.33971,-1.68771 c 2.28718,-3.2654 1.904,-6.35914 -1.07816,-8.70491 -3.14862,-2.47671 -5.16112,-2.60421 -8.14263,-0.51588 -2.67115,1.87095 -3.0412,7.48175 -0.65108,9.87187 2.39012,2.39012 8.00092,2.02007 9.87187,-0.65108 z m 262.4009,2.96754 c -4.23865,-3.58307 -5.1667,-6.2207 -3.39453,-9.6477 1.83576,-3.54997 6.15937,-7.09733 8.65039,-7.09733 1.00669,0 3.42101,1.39662 5.36514,3.10359 4.69087,4.11863 4.84494,8.43242 0.45788,12.81949 -3.69801,3.69801 -7.35559,3.96937 -11.07888,0.82195 z m 9.22154,-1.78021 C 403.52232,330.18528 404,328.85697 404,325.58614 c 0,-3.85899 -0.32642,-4.47871 -2.92628,-5.5556 -3.60919,-1.49498 -6.63876,-0.62401 -8.68329,2.49634 -3.76828,5.75112 3.25343,11.87482 9.67531,8.43794 z M 254.36808,317.4288 C 252.51563,315.46464 251,313.1988 251,312.39361 c 0,-2.32346 3.15116,-6.51493 6.36925,-8.47197 2.85269,-1.73483 3.08257,-1.73178 6.64964,0.088 6.4535,3.29233 7.57217,10.80707 2.23387,15.00618 -3.95135,3.10813 -7.96164,2.57262 -11.88468,-1.58702 z m 12.196,-2.55272 c 1.31581,-2.5445 1.316,-3.20729 0.002,-5.74898 -2.57371,-4.97701 -9.40364,-4.77172 -11.73854,0.35282 -3.3887,7.4374 7.97871,12.66369 11.73689,5.39616 z M 141.25,306.94469 c -4.10474,-3.84716 -4.14337,-6.85761 -0.14641,-11.40989 C 143.47631,292.83242 144.98262,292 147.5,292 c 2.51738,0 4.02369,0.83242 6.39641,3.5348 C 155.60338,297.47893 157,299.93828 157,301 c 0,1.06172 -1.39662,3.52107 -3.10359,5.4652 -4.05739,4.62111 -8.06536,4.77307 -12.64641,0.47949 z m 10.92126,-1.59968 c 2.27701,-2.06067 2.35945,-6.1011 0.17375,-8.51627 -2.31931,-2.56281 -8.91792,-2.49527 -10.30983,0.10552 -1.39783,2.61187 -1.30896,7.39196 0.16482,8.86574 1.74671,1.74671 7.84594,1.4684 9.97126,-0.45499 z m 217.19682,1.08379 c -3.83375,-4.06496 -3.92131,-4.4583 -1.87379,-8.41776 3.37798,-6.5323 9.78217,-7.88843 14.58263,-3.08796 3.72649,3.72648 3.84084,7.83277 0.33419,12.00019 -3.76836,4.47844 -8.52297,4.29819 -13.04303,-0.49447 z M 380.75,305.73312 c 1.59384,-1.24703 1.62902,-7.9541 0.05,-9.53312 -0.66,-0.66 -2.89963,-1.2 -4.97695,-1.2 -2.95554,0 -4.14423,0.56055 -5.46578,2.5775 -4.12259,6.29185 4.31354,12.91204 10.39273,8.15562 z M 114.48425,290.38851 c -1.33114,-1.43632 -2.69007,-3.46163 -3.01985,-4.50069 C 110.38431,282.48477 117.16121,275 121.32251,275 c 3.09824,0 8.67749,6.33925 8.67749,9.85953 0,7.26485 -10.45442,10.99024 -15.51575,5.52898 z M 125.25414,289.75 c 0.90002,-0.6875 1.92912,-2.46485 2.2869,-3.94968 1.14922,-4.76935 -6.05253,-9.76518 -10.14134,-7.03501 -1.95595,1.30602 -3.52725,5.25744 -2.88959,7.26654 1.46555,4.61754 7.0408,6.54695 10.74403,3.71815 z m 270.24616,0.068 c -3.41891,-4.06313 -2.83603,-8.18885 1.70495,-12.06798 4.4143,-3.77091 6.89042,-3.49338 11.17839,1.25288 4.09206,4.52943 4.19618,4.9752 2.10601,9.01714 -1.8611,3.59896 -4.31117,4.97998 -8.83501,4.97998 -2.67974,0 -4.09071,-0.72952 -6.15434,-3.18202 z M 407,289 c 5.61951,-5.61951 -1.82972,-13.96249 -8.54064,-9.56533 -2.90892,1.906 -3.40396,7.47787 -0.88793,9.9939 2.18396,2.18396 7.03661,1.96339 9.42857,-0.42857 z M 182.34375,269.95858 c -9.53846,-1.88711 -20.32004,-10.25652 -24.80393,-19.25452 -3.70567,-7.43631 -3.56755,-16.37963 0.35868,-23.22449 3.75609,-6.54825 10.84036,-12.99737 17.92635,-16.31916 5.18794,-2.43201 6.70536,-2.65549 17.67515,-2.60307 13.83114,0.0661 18.7235,1.20792 24.70795,5.76658 6.548,4.98794 8.95891,10.19875 9.5549,20.6514 0.44712,7.84183 0.23689,9.34004 -1.98521,14.14765 -2.91009,6.29608 -10.91721,14.62639 -16.99807,17.68417 -7.78908,3.91675 -17.01092,5.01609 -26.43582,3.15144 z m 22.16562,-4.10924 c 7.57015,-2.48511 14.44624,-7.98412 17.78244,-14.22113 3.05286,-5.70731 3.21535,-22.95953 0.2776,-29.47428 -3.3493,-7.42743 -12.73974,-11.08787 -29.1753,-11.3727 -14.62901,-0.25351 -26.18652,5.20361 -32.13778,15.17453 -2.88234,4.82918 -3.25633,6.29719 -3.25633,12.78212 0,11.25689 4.03429,18.85375 12.71323,23.93995 9.68326,5.67477 22.50533,6.87802 33.79614,3.17151 z m 113.34451,3.83198 c -9.87472,-2.23525 -20.24677,-10.89541 -24.50423,-20.45983 -4.62175,-10.38282 -2.28368,-26.51233 4.7653,-32.87398 6.79769,-6.13488 18.2224,-9.00762 32.08045,-8.06664 9.59362,0.65142 16.8414,3.80264 23.87247,10.37938 13.36133,12.49797 13.4782,28.80684 0.29768,41.54024 -9.23491,8.92164 -23.08928,12.51914 -36.51167,9.48083 z m 27.73325,-5.72555 c 11.38441,-5.77842 15.83486,-13.33189 15.26325,-25.9054 -0.29423,-6.47227 -0.83579,-8.49598 -3.37952,-12.62885 -5.80251,-9.42748 -17.43281,-14.75657 -31.96966,-14.64875 -15.13677,0.11227 -25.2113,3.82453 -28.71975,10.58263 -3.05188,5.87862 -3.74208,20.8407 -1.26107,27.33714 4.82974,12.64648 17.39447,19.59524 34.25217,18.94271 8.12648,-0.31455 10.08114,-0.76933 15.81458,-3.67948 z M 93.119037,253.64343 c -1.978377,-2.3838 -2.906322,-10.26381 -1.842338,-15.64495 1.168092,-5.90767 3.31663,-7.67205 6.568695,-5.39422 C 99.764488,233.94845 100,235.0435 100,242.62245 c 0,4.67997 -0.465833,9.37945 -1.035184,10.44329 -1.20014,2.24248 -4.216719,2.54059 -5.845779,0.57769 z M 419.03518,253.06574 C 418.46583,252.0019 418,247.30242 418,242.62245 c 0,-7.57895 0.23551,-8.674 2.15461,-10.01819 3.29628,-2.30881 5.38565,-0.51862 6.63077,5.68129 1.11671,5.56047 0.19279,12.8309 -1.96019,15.42508 -1.5798,1.90354 -4.60655,1.56642 -5.79001,-0.64489 z M 226,191.94266 c -17.325,-6.59733 -34.5375,-13.14767 -38.25,-14.55632 -5.08773,-1.93047 -6.75,-3.03218 -6.75,-4.47376 0,-1.8672 1.86276,-1.91258 78.5,-1.91258 76.14356,0 78.5,0.0564 78.5,1.87868 0,1.11819 -1.1132,2.32052 -2.75,2.97019 -1.5125,0.60033 -17.825,6.73735 -36.25,13.63782 -18.425,6.90047 -34.53367,12.98888 -35.79705,13.52981 -1.26338,0.54092 -3.06338,0.9695 -4,0.9524 C 258.26633,203.95179 243.325,198.53998 226,191.94266 z m -91.4288,-13.31074 c -4.31607,-4.07057 -4.58805,-7.27001 -0.98231,-11.55519 2.04927,-2.43542 3.37602,-3.07673 6.36514,-3.07673 8.85718,0 12.33475,8.83967 5.89766,14.9913 -4.06859,3.88817 -6.87146,3.79887 -11.28049,-0.35938 z m 9.41326,-0.6236 c 2.70666,-1.44857 3.55015,-6.54346 1.58087,-9.54896 C 142.44122,163.69137 134,166.31697 134,172.0567 c 0,5.31519 5.28604,8.46613 9.98446,5.95162 z m 233.55034,0.88809 c -4.43706,-3.89579 -4.85162,-8.6705 -1.08025,-12.44186 3.87984,-3.87985 9.48214,-3.42963 13.44186,1.08025 1.70697,1.94413 3.10359,3.76648 3.10359,4.04966 0,1.59221 -3.32875,6.52897 -5.61488,8.32724 -3.61652,2.84476 -5.69836,2.63018 -9.85032,-1.01529 z m 10.01065,-2.35096 c 2.76208,-2.76207 2.94797,-3.73952 1.30485,-6.86119 -1.49938,-2.84858 -2.7906,-3.65029 -5.90917,-3.66895 -4.11342,-0.0246 -6.14113,2.11654 -6.14113,6.48469 0,6.50551 6.01926,8.77165 10.74545,4.04545 z M 134.4,146.6 c -4.68868,-4.68868 -4.27734,-8.33199 1.50712,-13.34878 3.46716,-3.00703 5.35412,-2.83876 9.55808,0.85237 4.65847,4.09019 4.87625,8.70881 0.61172,12.97333 -3.95573,3.95574 -7.38429,3.81571 -11.67692,-0.47692 z m 11.16533,-2.05936 c 1.09231,-1.66708 1.3957,-3.44158 0.94177,-5.50832 C 144.85007,131.4879 134,133.19488 134,141 c 0,4.18821 1.81546,6 6.01213,6 3.0837,0 4.29255,-0.53537 5.5532,-2.45936 z m 231.35775,2.53628 c -4.26453,-4.26452 -4.04675,-8.88314 0.61172,-12.97333 1.94413,-1.70697 4.23717,-3.10359 5.09563,-3.10359 2.42939,0 7.2375,3.84393 8.94974,7.15504 1.41959,2.74517 1.40365,3.22071 -0.18941,5.65202 -4.47912,6.83601 -9.71758,8.01996 -14.46768,3.26986 z m 11.54786,-3.02072 c 3.07833,-5.95284 -2.21072,-11.64927 -8.42588,-9.07486 -2.98616,1.2369 -3.57662,2.68645 -3.06264,7.51866 0.34687,3.26111 2.0302,4.5 6.11434,4.5 3.25211,0 4.08891,-0.45837 5.37418,-2.9438 z m -206.83608,1.87122 C 179.51173,144.25737 179,143.01222 179,139.51631 c 0,-3.61699 0.51168,-4.76907 3.07673,-6.92742 4.20112,-3.53501 7.40249,-3.30967 11.52327,0.81111 4.12078,4.12078 4.34612,7.32215 0.81111,11.52327 -3.19695,3.79936 -8.67533,4.22993 -12.77625,1.00415 z m 10.14263,-1.48412 c 2.69664,-1.8888 2.99438,-6.93291 0.56752,-9.61456 -2.1836,-2.41285 -6.84635,-2.3274 -9.34501,0.17126 -5.78433,5.78433 2.01763,14.17809 8.77749,9.4433 z m 38.52179,1.3067 c -3.92286,-4.30694 -4.35937,-6.12206 -2.29042,-9.52417 4.06614,-6.68624 9.06865,-7.66365 14.31908,-2.79771 3.57234,3.31074 3.66848,8.66637 0.21751,12.11733 -3.29338,3.29339 -9.34079,3.3944 -12.24617,0.20455 z m 9.0048,-0.67551 c 2.74624,-1.04412 3.80919,-4.53599 2.47702,-8.13718 -1.76927,-4.78281 -7.42936,-5.47123 -10.70852,-1.30245 -2.68527,3.41376 -2.61274,4.91589 0.38197,7.91059 2.66588,2.66589 4.11628,2.94842 7.84953,1.52904 z m 39.38301,0.12079 c -3.77683,-3.94216 -3.57321,-7.94408 0.61052,-11.99911 4.13306,-4.00593 6.68643,-4.02709 11.16759,-0.0926 4.56056,4.00423 4.81706,8.29374 0.73008,12.20932 -3.87739,3.71477 -8.8816,3.66771 -12.50819,-0.11763 z m 10.0904,-0.75198 c 2.69664,-1.8888 2.99438,-6.93291 0.56752,-9.61456 -2.1836,-2.41285 -6.84635,-2.3274 -9.34501,0.17126 -5.78433,5.78433 2.01763,14.17809 8.77749,9.4433 z m 38.14559,0.63362 c -3.95574,-3.95573 -3.81571,-7.38429 0.47692,-11.67692 4.20819,-4.20819 7.37615,-4.34567 11.49424,-0.49879 2.37545,2.219 3.10576,3.75814 3.10576,6.54545 0,8.07748 -9.1957,11.51148 -15.07692,5.63026 z m 11.88901,-1.84039 c 0.77951,-1.03166 1.07847,-2.95424 0.73653,-4.73653 C 338.0059,130.45892 327,131.42219 327,139.59828 c 0,5.94876 8.16588,8.46394 11.81209,3.63825 z M 182.19617,116.70239 C 177.92164,112.2922 177.97915,108.82085 182.4,104.4 c 4.20801,-4.20801 6.53902,-4.27045 11.0652,-0.29641 4.77998,4.19688 4.87625,8.53776 0.2848,12.8411 -4.27048,4.0025 -7.50536,3.93466 -11.55383,-0.2423 z M 192.23626,115.75 c 1.92056,-1.48327 2.43288,-4.24819 1.46758,-7.92034 -0.81698,-3.1079 -5.357,-4.62084 -8.62227,-2.87331 -6.0965,3.26274 -4.38333,12.04365 2.34975,12.04365 1.75253,0 3.91475,-0.5625 4.80494,-1.25 z m 134.95991,0.95239 C 322.92164,112.2922 322.97915,108.82085 327.4,104.4 c 4.20801,-4.20801 6.53902,-4.27045 11.0652,-0.29641 4.65001,4.08276 4.8447,8.48745 0.5685,12.86193 -4.01437,4.10665 -7.68118,4.02514 -11.83753,-0.26313 z m 10.87707,-1.29064 c 1.45753,-1.75621 1.61936,-8.11915 0.24154,-9.49697 -2.01202,-2.01202 -6.87396,-2.09232 -9.26881,-0.15309 -2.66882,2.16108 -3.22605,7.11147 -1.09019,9.68503 1.70926,2.05953 8.39836,2.03641 10.11746,-0.035 z M 182.4,85.6 c -4.63551,-4.635512 -4.59552,-8.343136 0.1348,-12.496408 4.41399,-3.875538 7.13196,-3.914211 11.24234,-0.159963 4.59552,4.19736 4.48612,8.740029 -0.31194,12.952779 C 188.93902,89.870448 186.60801,89.808007 182.4,85.6 z m 9.64605,-1.436208 c 2.50031,-2.024625 2.97913,-7.223598 0.89642,-9.733115 -1.46448,-1.764587 -8.31821,-1.887792 -9.73963,-0.175083 -0.57313,0.690577 -1.34633,2.467932 -1.71822,3.949677 -0.52823,2.104621 -0.11817,3.25209 1.87415,5.244406 3.0174,3.017404 5.58245,3.228257 8.68728,0.714115 z M 327.5712,85.631923 C 322.90351,81.229719 322.8575,77.942503 327.4,73.4 c 4.19594,-4.195936 7.15297,-4.314552 11.37714,-0.456371 4.59552,4.19736 4.48612,8.740029 -0.31194,12.952779 -4.5012,3.95211 -6.47389,3.904217 -10.894,-0.264485 z m 9.48468,-1.476091 c 2.56903,-2.080274 3.08343,-7.078116 0.98834,-9.602548 C 337.28697,73.640855 335.1659,73 332.90324,73 c -3.25211,0 -4.08891,0.458374 -5.37418,2.943798 -3.47225,6.714599 3.71992,12.914183 9.52682,8.212034 z"
       id="path3074"
       inkscape:connector-curvature="0"
       sodipodi:nodetypes="csssssssssssssscccssssssssssssssssssssssssssccsssssssssssssssssssssssssssssssssssssssssssssssssssssccsccssssssssssssssssssssssssssssssssssssssssssssssssssssssssssssssssssssssssssssssssssssssssssssssscsssssssssssssssssssssssssssssssssssssssssssssssssssssssssssssscsssccsssssssssssssssssssssssssssscsssccsssssssssssssssssssss" />
    <g
       id="g3158"
       transform="translate(196.75813,325.5767)"
       style="stroke:#d3d7cf">
      <path
         id="path4052"
         style="fill:none;stroke:#d3d7cf;stroke-width:2.59739995"
         d="m -4.625,31.591 c -14.57,0 -24.417,11.736 -21.883,26.087 l 6.114,34.567 c 2.538,14.35 16.536,26.099 31.105,26.099 l 99.195,0 c 14.567,0 28.564,-11.749 31.105,-26.099 l 6.113,-34.567 c 2.534,-14.351 -7.308,-26.087 -21.883,-26.087 l -129.866,0 0,0 z"
         inkscape:connector-curvature="0" />
      <g
         style="fill:none;stroke:#2e3436"
         id="g3175"
         transform="translate(0,-2)">
        <circle
           d="m 8.8429997,60.5 c 0,3.213745 -2.6052549,5.819 -5.8189998,5.819 -3.2137448,0 -5.8189997,-2.605255 -5.8189997,-5.819 0,-3.213745 2.6052549,-5.819 5.8189997,-5.819 3.2137449,0 5.8189998,2.605255 5.8189998,5.819 z"
           sodipodi:ry="5.8189998"
           sodipodi:rx="5.8189998"
           sodipodi:cy="60.5"
           sodipodi:cx="3.0239999"
           cx="3.0239999"
           cy="60.5"
           r="5.8189998"
           style="fill:none;stroke:#2e3436;stroke-width:2.59739995"
           id="circle3177" />
        <circle
           d="m 37.489,60.5 c 0,3.213745 -2.605255,5.819 -5.819,5.819 -3.213745,0 -5.819,-2.605255 -5.819,-5.819 0,-3.213745 2.605255,-5.819 5.819,-5.819 3.213745,0 5.819,2.605255 5.819,5.819 z"
           sodipodi:ry="5.8189998"
           sodipodi:rx="5.8189998"
           sodipodi:cy="60.5"
           sodipodi:cx="31.67"
           cx="31.67"
           cy="60.5"
           r="5.8189998"
           style="fill:none;stroke:#2e3436;stroke-width:2.59739995"
           id="circle3179" />
        <circle
           d="m 66.125001,60.5 c 0,3.211536 -2.603464,5.815 -5.815,5.815 -3.211535,0 -5.815,-2.603464 -5.815,-5.815 0,-3.211536 2.603465,-5.815 5.815,-5.815 3.211536,0 5.815,2.603464 5.815,5.815 z"
           sodipodi:ry="5.8150001"
           sodipodi:rx="5.8150001"
           sodipodi:cy="60.5"
           sodipodi:cx="60.310001"
           cx="60.310001"
           cy="60.5"
           r="5.8150001"
           style="fill:none;stroke:#2e3436;stroke-width:2.59739995"
           id="circle3181" />
        <path
           inkscape:connector-curvature="0"
           d="m 88.945,54.682 c 3.214,0 5.818,2.606 5.818,5.82 0,3.213 -2.604,5.817 -5.818,5.817 -3.209,0 -5.816,-2.604 -5.816,-5.817 0,-3.214 2.607,-5.82 5.816,-5.82 z"
           style="fill:none;stroke:#2e3436;stroke-width:2.59739995"
           id="path3183" />
        <circle
           d="m 123.407,60.5 c 0,3.213745 -2.60526,5.819 -5.819,5.819 -3.21375,0 -5.819,-2.605255 -5.819,-5.819 0,-3.213745 2.60525,-5.819 5.819,-5.819 3.21374,0 5.819,2.605255 5.819,5.819 z"
           sodipodi:ry="5.8189998"
           sodipodi:rx="5.8189998"
           sodipodi:cy="60.5"
           sodipodi:cx="117.588"
           cx="117.588"
           cy="60.5"
           r="5.8189998"
           style="fill:none;stroke:#2e3436;stroke-width:2.59739995"
           id="circle3185" />
        <circle
           d="m 23.164999,89.436996 c 0,3.212641 -2.604359,5.817 -5.816999,5.817 -3.212641,0 -5.817,-2.604359 -5.817,-5.817 0,-3.21264 2.604359,-5.816999 5.817,-5.816999 3.21264,0 5.816999,2.604359 5.816999,5.816999 z"
           sodipodi:ry="5.8169999"
           sodipodi:rx="5.8169999"
           sodipodi:cy="89.436996"
           sodipodi:cx="17.348"
           cx="17.348"
           cy="89.436996"
           r="5.8169999"
           style="fill:none;stroke:#2e3436;stroke-width:2.59739995"
           id="circle3187" />
        <circle
           d="m 51.807002,89.436996 c 0,3.212641 -2.60436,5.817 -5.817,5.817 -3.212641,0 -5.817,-2.604359 -5.817,-5.817 0,-3.21264 2.604359,-5.816999 5.817,-5.816999 3.21264,0 5.817,2.604359 5.817,5.816999 z"
           sodipodi:ry="5.8169999"
           sodipodi:rx="5.8169999"
           sodipodi:cy="89.436996"
           sodipodi:cx="45.990002"
           cx="45.990002"
           cy="89.436996"
           r="5.8169999"
           style="fill:none;stroke:#2e3436;stroke-width:2.59739995"
           id="circle3189" />
        <circle
           d="m 80.441,89.436996 c 0,3.212641 -2.604359,5.817 -5.816999,5.817 -3.212641,0 -5.817,-2.604359 -5.817,-5.817 0,-3.21264 2.604359,-5.816999 5.817,-5.816999 3.21264,0 5.816999,2.604359 5.816999,5.816999 z"
           sodipodi:ry="5.8169999"
           sodipodi:rx="5.8169999"
           sodipodi:cy="89.436996"
           sodipodi:cx="74.624001"
           cx="74.624001"
           cy="89.436996"
           r="5.8169999"
           style="fill:none;stroke:#2e3436;stroke-width:2.59739995"
           id="circle3191" />
        <path
           inkscape:connector-curvature="0"
           d="m 103.271,83.619 c 3.211,0 5.812,2.604 5.812,5.815 0,3.212 -2.601,5.816 -5.812,5.816 -3.216,0 -5.816,-2.604 -5.816,-5.816 0,-3.21 2.601,-5.815 5.816,-5.815 z"
           style="fill:none;stroke:#2e3436;stroke-width:2.59739995"
           id="path3193" />
      </g>
      <g
         id="g4060"
         style="stroke:#d3d7cf;fill:#eeeeec">
        <circle
           id="circle4062"
           style="fill:#eeeeec;stroke:#d3d7cf;stroke-width:2.59739994999999979"
           r="5.8189998"
           cy="60.5"
           cx="3.0239999"
           sodipodi:cx="3.0239999"
           sodipodi:cy="60.5"
           sodipodi:rx="5.8189998"
           sodipodi:ry="5.8189998"
           d="m 8.8429997,60.5 c 0,3.213745 -2.6052549,5.819 -5.8189998,5.819 -3.2137448,0 -5.8189997,-2.605255 -5.8189997,-5.819 0,-3.213745 2.6052549,-5.819 5.8189997,-5.819 3.2137449,0 5.8189998,2.605255 5.8189998,5.819 z" />
        <circle
           id="circle4064"
           style="fill:#eeeeec;stroke:#d3d7cf;stroke-width:2.59739994999999979"
           r="5.8189998"
           cy="60.5"
           cx="31.67"
           sodipodi:cx="31.67"
           sodipodi:cy="60.5"
           sodipodi:rx="5.8189998"
           sodipodi:ry="5.8189998"
           d="m 37.489,60.5 c 0,3.213745 -2.605255,5.819 -5.819,5.819 -3.213745,0 -5.819,-2.605255 -5.819,-5.819 0,-3.213745 2.605255,-5.819 5.819,-5.819 3.213745,0 5.819,2.605255 5.819,5.819 z" />
        <circle
           id="circle4066"
           style="fill:#eeeeec;stroke:#d3d7cf;stroke-width:2.59739994999999979"
           r="5.8150001"
           cy="60.5"
           cx="60.310001"
           sodipodi:cx="60.310001"
           sodipodi:cy="60.5"
           sodipodi:rx="5.8150001"
           sodipodi:ry="5.8150001"
           d="m 66.125001,60.5 c 0,3.211536 -2.603464,5.815 -5.815,5.815 -3.211535,0 -5.815,-2.603464 -5.815,-5.815 0,-3.211536 2.603465,-5.815 5.815,-5.815 3.211536,0 5.815,2.603464 5.815,5.815 z" />
        <path
           id="path4068"
           style="fill:#eeeeec;stroke:#d3d7cf;stroke-width:2.59739994999999979"
           d="m 88.945,54.682 c 3.214,0 5.818,2.606 5.818,5.82 0,3.213 -2.604,5.817 -5.818,5.817 -3.209,0 -5.816,-2.604 -5.816,-5.817 0,-3.214 2.607,-5.82 5.816,-5.82 z"
           inkscape:connector-curvature="0" />
        <circle
           id="circle4070"
           style="fill:#eeeeec;stroke:#d3d7cf;stroke-width:2.59739994999999979"
           r="5.8189998"
           cy="60.5"
           cx="117.588"
           sodipodi:cx="117.588"
           sodipodi:cy="60.5"
           sodipodi:rx="5.8189998"
           sodipodi:ry="5.8189998"
           d="m 123.407,60.5 c 0,3.213745 -2.60526,5.819 -5.819,5.819 -3.21375,0 -5.819,-2.605255 -5.819,-5.819 0,-3.213745 2.60525,-5.819 5.819,-5.819 3.21374,0 5.819,2.605255 5.819,5.819 z" />
        <circle
           id="circle4072"
           style="fill:#eeeeec;stroke:#d3d7cf;stroke-width:2.59739994999999979"
           r="5.8169999"
           cy="89.436996"
           cx="17.348"
           sodipodi:cx="17.348"
           sodipodi:cy="89.436996"
           sodipodi:rx="5.8169999"
           sodipodi:ry="5.8169999"
           d="m 23.164999,89.436996 c 0,3.212641 -2.604359,5.817 -5.816999,5.817 -3.212641,0 -5.817,-2.604359 -5.817,-5.817 0,-3.21264 2.604359,-5.816999 5.817,-5.816999 3.21264,0 5.816999,2.604359 5.816999,5.816999 z" />
        <circle
           id="circle4074"
           style="fill:#eeeeec;stroke:#d3d7cf;stroke-width:2.59739994999999979"
           r="5.8169999"
           cy="89.436996"
           cx="45.990002"
           sodipodi:cx="45.990002"
           sodipodi:cy="89.436996"
           sodipodi:rx="5.8169999"
           sodipodi:ry="5.8169999"
           d="m 51.807002,89.436996 c 0,3.212641 -2.60436,5.817 -5.817,5.817 -3.212641,0 -5.817,-2.604359 -5.817,-5.817 0,-3.21264 2.604359,-5.816999 5.817,-5.816999 3.21264,0 5.817,2.604359 5.817,5.816999 z" />
        <circle
           id="circle4076"
           style="fill:#eeeeec;stroke:#d3d7cf;stroke-width:2.59739994999999979"
           r="5.8169999"
           cy="89.436996"
           cx="74.624001"
           sodipodi:cx="74.624001"
           sodipodi:cy="89.436996"
           sodipodi:rx="5.8169999"
           sodipodi:ry="5.8169999"
           d="m 80.441,89.436996 c 0,3.212641 -2.604359,5.817 -5.816999,5.817 -3.212641,0 -5.817,-2.604359 -5.817,-5.817 0,-3.21264 2.604359,-5.816999 5.817,-5.816999 3.21264,0 5.816999,2.604359 5.816999,5.816999 z" />
        <path
           id="path4078"
           style="fill:#eeeeec;stroke:#d3d7cf;stroke-width:2.59739994999999979"
           d="m 103.271,83.619 c 3.211,0 5.812,2.604 5.812,5.815 0,3.212 -2.601,5.816 -5.812,5.816 -3.216,0 -5.816,-2.604 -5.816,-5.816 0,-3.21 2.601,-5.815 5.816,-5.815 z"
           inkscape:connector-curvature="0" />
      </g>
    </g>
  </g>
</svg>
