<?xml version="1.0" encoding="UTF-8" standalone="no"?>
<!DOCTYPE svg PUBLIC "-//W3C//DTD SVG 1.1//EN"
 "http://www.w3.org/Graphics/SVG/1.1/DTD/svg11.dtd">
<!-- Generated by graphviz version 2.38.0 (20140413.2041)
 -->
<!-- Title: status Pages: 1 -->
<svg width="750pt" height="300pt"
 viewBox="0.00 0.00 750.00 300.00" xmlns="http://www.w3.org/2000/svg" xmlns:xlink="http://www.w3.org/1999/xlink">
<g id="graph0" class="graph" transform="scale(1 1) rotate(0) translate(4 296)">
<title>status</title>
<polygon fill="white" stroke="none" points="-4,4 -4,-296 746,-296 746,4 -4,4"/>
<g id="clust1" class="cluster"><title>cluster_legend</title>
<polygon fill="none" stroke="black" points="8,-200 8,-284 734,-284 734,-200 8,-200"/>
</g>
<!-- correct -->
<g id="node1" class="node"><title>correct</title>
<polygon fill="PaleGreen" stroke="black" points="726,-260 612,-260 612,-224 726,-224 726,-260"/>
<text text-anchor="middle" x="669" y="-238.3" font-family="arial" font-size="14.00">Full and correct</text>
</g>
<!-- incorrect -->
<g id="node2" class="node"><title>incorrect</title>
<polygon fill="LightCoral" stroke="black" points="593.5,-260 472.5,-260 472.5,-224 593.5,-224 593.5,-260"/>
<text text-anchor="middle" x="533" y="-238.3" font-family="arial" font-size="14.00">Full but incorrect</text>
</g>
<!-- flag -->
<g id="node3" class="node"><title>flag</title>
<polygon fill="Orchid" stroke="black" points="454,-260 324,-260 324,-224 454,-224 454,-260"/>
<text text-anchor="middle" x="389" y="-238.3" font-family="arial" font-size="14.00">Ready, but not full</text>
</g>
<!-- incomplete -->
<g id="node4" class="node"><title>incomplete</title>
<polygon fill="Lavender" stroke="black" points="306,-260 190,-260 190,-224 306,-224 306,-260"/>
<text text-anchor="middle" x="248" y="-238.3" font-family="arial" font-size="14.00">Not full or ready</text>
</g>
<!-- filler -->
<!-- role -->
<g id="node11" class="node"><title>role</title>
<polygon fill="Lavender" stroke="black" points="192.5,-156 97.5,-156 97.5,-120 192.5,-120 192.5,-156"/>
<text text-anchor="middle" x="145" y="-134.3" font-family="arial" font-size="14.00">Receveiving</text>
</g>
<!-- filler&#45;&gt;role -->
<!-- text -->
<g id="node6" class="node"><title>text</title>
<polygon fill="Lavender" stroke="black" points="99.5,-276 16.5,-276 16.5,-208 99.5,-208 99.5,-276"/>
<text text-anchor="middle" x="58" y="-260.8" font-family="arial" font-size="14.00">Class</text>
<text text-anchor="middle" x="58" y="-245.8" font-family="arial" font-size="14.00">Converted</text>
<text text-anchor="middle" x="58" y="-230.8" font-family="arial" font-size="14.00">Original</text>
<text text-anchor="middle" x="58" y="-215.8" font-family="arial" font-size="14.00">State</text>
</g>
<!-- 0 -->
<g id="node7" class="node"><title>0</title>
<polygon fill="Orchid" stroke="black" points="346,-68 254,-68 254,-0 346,-0 346,-68"/>
<text text-anchor="middle" x="300" y="-52.8" font-family="arial" font-size="14.00">FrameNode</text>
<text text-anchor="middle" x="300" y="-37.8" font-family="arial" font-size="14.00">111111</text>
<text text-anchor="middle" x="300" y="-22.8" font-family="arial" font-size="14.00">[empty]</text>
<text text-anchor="middle" x="300" y="-7.8" font-family="arial" font-size="14.00">Filler</text>
</g>
<!-- 1 -->
<g id="node8" class="node"><title>1</title>
<polygon fill="Lavender" stroke="black" points="291.5,-172 210.5,-172 210.5,-104 291.5,-104 291.5,-172"/>
<text text-anchor="middle" x="251" y="-156.8" font-family="arial" font-size="14.00">PureNode</text>
<text text-anchor="middle" x="251" y="-141.8" font-family="arial" font-size="14.00">[empty]</text>
<text text-anchor="middle" x="251" y="-126.8" font-family="arial" font-size="14.00">[empty]</text>
<text text-anchor="middle" x="251" y="-111.8" font-family="arial" font-size="14.00">Empty</text>
</g>
<!-- 1&#45;&gt;0 -->
<g id="edge1" class="edge"><title>1&#45;&gt;0</title>
<path fill="none" stroke="black" d="M266.909,-103.884C270.974,-95.4215 275.4,-86.2074 279.655,-77.3517"/>
<polygon fill="black" stroke="black" points="282.828,-78.8288 284.003,-68.2994 276.518,-75.7976 282.828,-78.8288"/>
</g>
<!-- 2 -->
<g id="node9" class="node"><title>2</title>
<polygon fill="Lavender" stroke="black" points="390.5,-172 309.5,-172 309.5,-104 390.5,-104 390.5,-172"/>
<text text-anchor="middle" x="350" y="-156.8" font-family="arial" font-size="14.00">PureNode</text>
<text text-anchor="middle" x="350" y="-141.8" font-family="arial" font-size="14.00">[empty]</text>
<text text-anchor="middle" x="350" y="-126.8" font-family="arial" font-size="14.00">[empty]</text>
<text text-anchor="middle" x="350" y="-111.8" font-family="arial" font-size="14.00">Empty</text>
</g>
<!-- 2&#45;&gt;0 -->
<g id="edge2" class="edge"><title>2&#45;&gt;0</title>
<path fill="none" stroke="black" d="M333.766,-103.884C329.618,-95.4215 325.102,-86.2074 320.761,-77.3517"/>
<polygon fill="black" stroke="black" points="323.868,-75.738 316.323,-68.2994 317.582,-78.8191 323.868,-75.738"/>
</g>
<!-- 3 -->
<g id="node10" class="node"><title>3</title>
<polygon fill="Lavender" stroke="black" points="489.5,-172 408.5,-172 408.5,-104 489.5,-104 489.5,-172"/>
<text text-anchor="middle" x="449" y="-156.8" font-family="arial" font-size="14.00">PureNode</text>
<text text-anchor="middle" x="449" y="-141.8" font-family="arial" font-size="14.00">[empty]</text>
<text text-anchor="middle" x="449" y="-126.8" font-family="arial" font-size="14.00">[empty]</text>
<text text-anchor="middle" x="449" y="-111.8" font-family="arial" font-size="14.00">Empty</text>
</g>
<!-- 3&#45;&gt;0 -->
<g id="edge3" class="edge"><title>3&#45;&gt;0</title>
<path fill="none" stroke="black" d="M408.285,-109.128C391.773,-97.8241 372.451,-84.597 354.736,-72.4701"/>
<polygon fill="black" stroke="black" points="356.417,-69.3792 346.188,-66.6185 352.462,-75.1554 356.417,-69.3792"/>
</g>
<!-- role&#45;&gt;0 -->
<g id="edge5" class="edge"><title>role&#45;&gt;0</title>
<path fill="none" stroke="black" d="M170.944,-119.927C191.23,-106.578 220.141,-87.5522 245.459,-70.8913"/>
<polygon fill="black" stroke="black" points="247.46,-73.7643 253.89,-65.3434 243.612,-67.9168 247.46,-73.7643"/>
</g>
</g>
</svg>
