<?xml version="1.0" encoding="UTF-8" standalone="no"?>
<!DOCTYPE svg PUBLIC "-//W3C//DTD SVG 1.1//EN"
 "http://www.w3.org/Graphics/SVG/1.1/DTD/svg11.dtd">
<!-- Generated by graphviz version 2.38.0 (20140413.2041)
 -->
<!-- Title: status Pages: 1 -->
<svg width="578pt" height="228pt"
 viewBox="0.00 0.00 578.00 228.00" xmlns="http://www.w3.org/2000/svg" xmlns:xlink="http://www.w3.org/1999/xlink">
<g id="graph0" class="graph" transform="scale(1 1) rotate(0) translate(4 224)">
<title>status</title>
<polygon fill="white" stroke="none" points="-4,4 -4,-224 574,-224 574,4 -4,4"/>
<g id="clust1" class="cluster"><title>cluster_legend</title>
<polygon fill="none" stroke="black" points="8,-148 8,-212 562,-212 562,-148 8,-148"/>
</g>
<!-- correct -->
<g id="node1" class="node"><title>correct</title>
<polygon fill="PaleGreen" stroke="black" points="554,-198 474,-198 474,-162 554,-162 554,-198"/>
<text text-anchor="middle" x="514" y="-177.8" font-family="arial" font-size="9.00">Full and correct</text>
</g>
<!-- incorrect -->
<g id="node2" class="node"><title>incorrect</title>
<polygon fill="LightCoral" stroke="black" points="456,-198 372,-198 372,-162 456,-162 456,-198"/>
<text text-anchor="middle" x="414" y="-177.8" font-family="arial" font-size="9.00">Full but incorrect</text>
</g>
<!-- flag -->
<g id="node3" class="node"><title>flag</title>
<polygon fill="Orchid" stroke="black" points="353.5,-198 264.5,-198 264.5,-162 353.5,-162 353.5,-198"/>
<text text-anchor="middle" x="309" y="-177.8" font-family="arial" font-size="9.00">Ready, but not full</text>
</g>
<!-- incomplete -->
<g id="node4" class="node"><title>incomplete</title>
<polygon fill="Lavender" stroke="black" points="246,-198 166,-198 166,-162 246,-162 246,-198"/>
<text text-anchor="middle" x="206" y="-177.8" font-family="arial" font-size="9.00">Not full or ready</text>
</g>
<!-- filler -->
<!-- role -->
<g id="node8" class="node"><title>role</title>
<polygon fill="Lavender" stroke="black" points="154,-120 88,-120 88,-84 154,-84 154,-120"/>
<text text-anchor="middle" x="121" y="-99.8" font-family="arial" font-size="9.00">Receveiving</text>
</g>
<!-- filler&#45;&gt;role -->
<!-- text -->
<g id="node6" class="node"><title>text</title>
<polygon fill="Lavender" stroke="black" points="75.5,-204 16.5,-204 16.5,-156 75.5,-156 75.5,-204"/>
<text text-anchor="middle" x="46" y="-192.8" font-family="arial" font-size="9.00">Class</text>
<text text-anchor="middle" x="46" y="-182.8" font-family="arial" font-size="9.00">Converted</text>
<text text-anchor="middle" x="46" y="-172.8" font-family="arial" font-size="9.00">Original</text>
<text text-anchor="middle" x="46" y="-162.8" font-family="arial" font-size="9.00">State</text>
</g>
<!-- 0 -->
<g id="node7" class="node"><title>0</title>
<polygon fill="Lavender" stroke="black" points="179,-48 63,-48 63,-0 179,-0 179,-48"/>
<text text-anchor="middle" x="121" y="-36.8" font-family="arial" font-size="9.00">FlaggingNode</text>
<text text-anchor="middle" x="121" y="-26.8" font-family="arial" font-size="9.00">1001100100111001101</text>
<text text-anchor="middle" x="121" y="-16.8" font-family="arial" font-size="9.00">[empty]</text>
<text text-anchor="middle" x="121" y="-6.8" font-family="arial" font-size="9.00">Filler</text>
</g>
<!-- role&#45;&gt;0 -->
<g id="edge2" class="edge"><title>role&#45;&gt;0</title>
<path fill="none" stroke="black" d="M121,-83.7544C121,-76.1997 121,-67.0663 121,-58.2755"/>
<polygon fill="black" stroke="black" points="124.5,-58.2284 121,-48.2284 117.5,-58.2284 124.5,-58.2284"/>
</g>
</g>
</svg>
