<?xml version="1.0" encoding="UTF-8" standalone="no"?>
<!DOCTYPE svg PUBLIC "-//W3C//DTD SVG 1.1//EN"
 "http://www.w3.org/Graphics/SVG/1.1/DTD/svg11.dtd">
<!-- Generated by graphviz version 2.38.0 (20140413.2041)
 -->
<!-- Title: status Pages: 1 -->
<svg width="750pt" height="372pt"
 viewBox="0.00 0.00 750.00 372.00" xmlns="http://www.w3.org/2000/svg" xmlns:xlink="http://www.w3.org/1999/xlink">
<g id="graph0" class="graph" transform="scale(1 1) rotate(0) translate(4 368)">
<title>status</title>
<polygon fill="white" stroke="none" points="-4,4 -4,-368 746,-368 746,4 -4,4"/>
<g id="clust1" class="cluster"><title>cluster_legend</title>
<polygon fill="none" stroke="black" points="8,-272 8,-356 734,-356 734,-272 8,-272"/>
</g>
<!-- correct -->
<g id="node1" class="node"><title>correct</title>
<polygon fill="PaleGreen" stroke="black" points="726,-332 612,-332 612,-296 726,-296 726,-332"/>
<text text-anchor="middle" x="669" y="-310.3" font-family="arial" font-size="14.00">Full and correct</text>
</g>
<!-- incorrect -->
<g id="node2" class="node"><title>incorrect</title>
<polygon fill="LightCoral" stroke="black" points="593.5,-332 472.5,-332 472.5,-296 593.5,-296 593.5,-332"/>
<text text-anchor="middle" x="533" y="-310.3" font-family="arial" font-size="14.00">Full but incorrect</text>
</g>
<!-- flag -->
<g id="node3" class="node"><title>flag</title>
<polygon fill="Orchid" stroke="black" points="454,-332 324,-332 324,-296 454,-296 454,-332"/>
<text text-anchor="middle" x="389" y="-310.3" font-family="arial" font-size="14.00">Ready, but not full</text>
</g>
<!-- incomplete -->
<g id="node4" class="node"><title>incomplete</title>
<polygon fill="Lavender" stroke="black" points="306,-332 190,-332 190,-296 306,-296 306,-332"/>
<text text-anchor="middle" x="248" y="-310.3" font-family="arial" font-size="14.00">Not full or ready</text>
</g>
<!-- filler -->
<!-- role -->
<g id="node11" class="node"><title>role</title>
<polygon fill="Lavender" stroke="black" points="179.5,-244 110.5,-244 110.5,-208 179.5,-208 179.5,-244"/>
<text text-anchor="middle" x="145" y="-222.3" font-family="arial" font-size="14.00">Sending</text>
</g>
<!-- filler&#45;&gt;role -->
<!-- text -->
<g id="node6" class="node"><title>text</title>
<polygon fill="Lavender" stroke="black" points="99.5,-348 16.5,-348 16.5,-280 99.5,-280 99.5,-348"/>
<text text-anchor="middle" x="58" y="-332.8" font-family="arial" font-size="14.00">Class</text>
<text text-anchor="middle" x="58" y="-317.8" font-family="arial" font-size="14.00">Original</text>
<text text-anchor="middle" x="58" y="-302.8" font-family="arial" font-size="14.00">Converted</text>
<text text-anchor="middle" x="58" y="-287.8" font-family="arial" font-size="14.00">State</text>
</g>
<!-- 0 -->
<g id="node7" class="node"><title>0</title>
<polygon fill="Orchid" stroke="black" points="191,-172 99,-172 99,-104 191,-104 191,-172"/>
<text text-anchor="middle" x="145" y="-156.8" font-family="arial" font-size="14.00">FrameNode</text>
<text text-anchor="middle" x="145" y="-141.8" font-family="arial" font-size="14.00">[empty]</text>
<text text-anchor="middle" x="145" y="-126.8" font-family="arial" font-size="14.00">111111</text>
<text text-anchor="middle" x="145" y="-111.8" font-family="arial" font-size="14.00">Filler</text>
</g>
<!-- 1 -->
<g id="node8" class="node"><title>1</title>
<polygon fill="Lavender" stroke="black" points="86.5,-68 5.5,-68 5.5,-0 86.5,-0 86.5,-68"/>
<text text-anchor="middle" x="46" y="-52.8" font-family="arial" font-size="14.00">PureNode</text>
<text text-anchor="middle" x="46" y="-37.8" font-family="arial" font-size="14.00">[empty]</text>
<text text-anchor="middle" x="46" y="-22.8" font-family="arial" font-size="14.00">[empty]</text>
<text text-anchor="middle" x="46" y="-7.8" font-family="arial" font-size="14.00">Empty</text>
</g>
<!-- 0&#45;&gt;1 -->
<g id="edge1" class="edge"><title>0&#45;&gt;1</title>
<path fill="none" stroke="black" d="M112.858,-103.884C104.126,-94.8871 94.5688,-85.0405 85.4819,-75.6783"/>
<polygon fill="black" stroke="black" points="87.7963,-73.0375 78.32,-68.2994 82.7732,-77.9129 87.7963,-73.0375"/>
</g>
<!-- 2 -->
<g id="node9" class="node"><title>2</title>
<polygon fill="Lavender" stroke="black" points="185.5,-68 104.5,-68 104.5,-0 185.5,-0 185.5,-68"/>
<text text-anchor="middle" x="145" y="-52.8" font-family="arial" font-size="14.00">PureNode</text>
<text text-anchor="middle" x="145" y="-37.8" font-family="arial" font-size="14.00">[empty]</text>
<text text-anchor="middle" x="145" y="-22.8" font-family="arial" font-size="14.00">[empty]</text>
<text text-anchor="middle" x="145" y="-7.8" font-family="arial" font-size="14.00">Empty</text>
</g>
<!-- 0&#45;&gt;2 -->
<g id="edge2" class="edge"><title>0&#45;&gt;2</title>
<path fill="none" stroke="black" d="M145,-103.884C145,-95.7778 145,-86.982 145,-78.4721"/>
<polygon fill="black" stroke="black" points="148.5,-78.2993 145,-68.2994 141.5,-78.2994 148.5,-78.2993"/>
</g>
<!-- 3 -->
<g id="node10" class="node"><title>3</title>
<polygon fill="Lavender" stroke="black" points="284.5,-68 203.5,-68 203.5,-0 284.5,-0 284.5,-68"/>
<text text-anchor="middle" x="244" y="-52.8" font-family="arial" font-size="14.00">PureNode</text>
<text text-anchor="middle" x="244" y="-37.8" font-family="arial" font-size="14.00">[empty]</text>
<text text-anchor="middle" x="244" y="-22.8" font-family="arial" font-size="14.00">[empty]</text>
<text text-anchor="middle" x="244" y="-7.8" font-family="arial" font-size="14.00">Empty</text>
</g>
<!-- 0&#45;&gt;3 -->
<g id="edge3" class="edge"><title>0&#45;&gt;3</title>
<path fill="none" stroke="black" d="M177.142,-103.884C185.874,-94.8871 195.431,-85.0405 204.518,-75.6783"/>
<polygon fill="black" stroke="black" points="207.227,-77.9129 211.68,-68.2994 202.204,-73.0375 207.227,-77.9129"/>
</g>
<!-- role&#45;&gt;0 -->
<g id="edge5" class="edge"><title>role&#45;&gt;0</title>
<path fill="none" stroke="black" d="M145,-207.597C145,-200.179 145,-191.164 145,-182.141"/>
<polygon fill="black" stroke="black" points="148.5,-182.035 145,-172.035 141.5,-182.035 148.5,-182.035"/>
</g>
</g>
</svg>
